<svg id="Layer_1" data-name="Layer 1" xmlns="http://www.w3.org/2000/svg" viewBox="0 0 538.47 510.24"><path d="M456.51-.77H179a82,82,0,0,0-81.07,70.2h41.83A41,41,0,0,1,179,40.19H456.51a41,41,0,0,1,40.95,41V358.67a41,41,0,0,1-40.95,41h-14.8v29.25a82.24,82.24,0,0,1-.84,11.71h15.64a82,82,0,0,0,81.91-81.92V81.14A82,82,0,0,0,456.51-.77Z"/><path d="M441.41,151.57a82,82,0,0,0-81.92-81.92H82A82,82,0,0,0,.05,151.57V429.09A82,82,0,0,0,82,511H359.49a82,82,0,0,0,81.92-81.92Zm-41,277.52a41,41,0,0,1-41,41H82a41,41,0,0,1-41-41V151.57a41,41,0,0,1,41-41H359.49a41,41,0,0,1,41,41Z"/><path d="M216.26,379.06c-6.53,0-11.59,2-15,5.82a20.32,20.32,0,0,0-5.08,14,19.68,19.68,0,0,0,5.11,13.85c3.44,3.73,8.49,5.62,15,5.62s11.58-1.88,15.08-5.6a19.55,19.55,0,0,0,5.2-13.87,20.16,20.16,0,0,0-5.17-14C227.87,381,222.79,379.06,216.26,379.06Z"/><path d="M270.12,190.06C258.32,178.73,241.73,173,220.79,173c-20.14,0-36.77,5.62-49.41,16.7a55.47,55.47,0,0,0-16.11,23.62c-2.1,6-1.54,11.79,1.6,16.2s8.36,6.83,14.74,6.83a17.34,17.34,0,0,0,16.55-12.28,25.6,25.6,0,0,1,7.76-11.77c6.19-5.38,14.55-8.11,24.87-8.11,10.54,0,18.62,3,24,8.79S253,227.21,253,237.79c0,11-4.34,21.52-12.91,31.21L219,290.79c-8.49,9.24-14.2,17.83-17,25.53a70.58,70.58,0,0,0-3.29,14.06A16.91,16.91,0,0,0,215.81,350h.29a17.89,17.89,0,0,0,17.11-14.75c1.45-9.58,4.8-17.41,9.94-23.28.21-.24.42-.47.65-.69l17.27-17.08c17.83-18.69,26.87-38,26.87-57.4,0-19.66-6-35.39-17.82-46.75Z"/></svg>