<svg id="Layer_1" data-name="Layer 1" xmlns="http://www.w3.org/2000/svg" viewBox="0 0 510.24 510.24"><path d="M283.76,285.39H201.28c-53.22.32-103.23,20.84-140.79,57.77S1.4,430,0,483.66a22.94,22.94,0,0,0,6.42,16.56,23.48,23.48,0,0,0,16.4,7.25H461.45l.24,0h.18a23.19,23.19,0,0,0,23.2-22.92C483.72,374.92,393.44,285.58,283.76,285.39ZM435.44,460.08H49.66l2.15-8.81c16.73-68.63,77-116.55,146.61-116.55l3,0h83.19a154.28,154.28,0,0,1,51,8.59,152.2,152.2,0,0,1,97.7,107.93Z"/><path d="M215.38,271.29l.11,0A134.58,134.58,0,0,0,355.2,212.82a5.44,5.44,0,0,0-4.54-8.43H303.33a11,11,0,0,0-7,2.49,87.91,87.91,0,0,1-54.15,19.61h-.13a86.91,86.91,0,0,1-86.73-87.23C155.1,91,194.15,51,242.42,50.14h.26a87.85,87.85,0,0,1,54,19.59,11,11,0,0,0,6.92,2.46h47.09a5.44,5.44,0,0,0,4.52-8.45,135.58,135.58,0,0,0-17.25-21.2,134.22,134.22,0,0,0-95.38-39.8h0C167.39,2.86,106.15,64.16,106,139.38A136.92,136.92,0,0,0,215.38,271.29Z"/><path d="M503.86,122.76,419.31,38.27a4.74,4.74,0,0,0-3.41-1.4,4.83,4.83,0,0,0-3.4,1.43L388.24,63a4.8,4.8,0,0,0,.05,6.76l47,46.47-186.83,0a4.79,4.79,0,0,0-3.39,1.4v0a4.77,4.77,0,0,0-1.39,3.42l.33,34.49a4.8,4.8,0,0,0,4.79,4.74H435.25l-47,47a4.78,4.78,0,0,0,0,6.8L413,238.39a4.8,4.8,0,0,0,6.74,0h0l84.12-84.58h0A22.07,22.07,0,0,0,503.86,122.76Z"/></svg>