<svg id="Layer_1" data-name="Layer 1" xmlns="http://www.w3.org/2000/svg" viewBox="0 0 387 385"><g id="noun_edit_1359758" data-name="noun edit 1359758"><path id="Path_194" data-name="Path 194" d="M239.47,20.38,15.89,244A25.51,25.51,0,0,0,8.5,259.83L.29,357.34a25.5,25.5,0,0,0,23.25,27.57q1,.09,2.07.09h1.62l99.49-6.37a25.53,25.53,0,0,0,16.45-7.38L366.74,147.67a70.1,70.1,0,0,0,0-99.14l0,0L338.29,20.38A70.09,70.09,0,0,0,239.47,20.38Zm-125.58,308-60.41,3.82,5-58.82,166.6-166.58,55.19,55.08ZM330.6,111.69,316.26,126l-55.2-55.19L275.4,56.49a19.11,19.11,0,0,1,27,0L330.6,84.66A19.14,19.14,0,0,1,330.6,111.69Z"/></g></svg>