<svg id="gliff-logo-black-black" data-name="Gliff logo Black Black" xmlns="http://www.w3.org/2000/svg" width="547.6188" height="412.4043" viewBox="0 0 547.6188 412.4043"><path d="M271.0346,230.4635H253.306V3.4028h17.7286Z"/><path d="M307.3559,24.308a11.8586,11.8586,0,0,1,3.2467-8.4555,11.6441,11.6441,0,0,1,8.876-3.457,11.8237,11.8237,0,0,1,8.946,3.457,11.6832,11.6832,0,0,1,3.3168,8.4555,11.4831,11.4831,0,0,1-3.3168,8.3854,12.045,12.045,0,0,1-8.946,3.3869c-3.7373,0-6.7037-1.1212-8.876-3.3869A11.7128,11.7128,0,0,1,307.3559,24.308Zm20.8584,206.1555H310.4858V70.51h17.7285Z"/><path d="M379.0642,230.4635V84.9914H352.6V70.51h26.4644V51.1461q0-24.5257,12.4964-37.6995Q404.0337.2729,426.3636.2962a68.2235,68.2235,0,0,1,18.78,2.4993l-1.3314,14.6687A68.5528,68.5528,0,0,0,427.695,15.689q-14.6452,0-22.7738,9.11t-8.1285,25.857V70.51h38.1432V84.9914H396.7927V230.44H379.0642Z"/><path d="M478.4047,230.4635V84.9914H451.94V70.51h26.4643V51.1461q0-24.5257,12.4964-37.6995Q503.3742.2729,525.7042.2962a68.2227,68.2227,0,0,1,18.78,2.4993l-1.3314,14.6687a68.5526,68.5526,0,0,0-16.1168-1.7752q-14.6454,0-22.7739,9.11t-8.1284,25.857V70.51h38.1432V84.9914H496.1333V230.44H478.4047Z"/><path d="M167.7232,412a69.9047,69.9047,0,0,1-10.7679-.8409,74.2681,74.2681,0,0,1-26.4176-9.6234c-39.0542,13.22-77.9215.257-101.4428-20.8351C11.927,365.3079,4.8028,347.1822,10.4788,333.3544c4.0409-9.8336,11.5621-15.6263,21.6993-16.7708,24.8293-2.7562,59.4689,23.5213,78.6222,50.5929a87.5791,87.5791,0,0,0,21.1388,21.3723,98.0835,98.0835,0,0,0,9.9271-4.7182c34.64-18.9432,60.2163-43.282,69.5126-64.9112-13.5007-11.819-35.9943-18.8264-65.0747-19.8074l-.2569-.0234c-19.7373-1.5649-37.279-5.6058-52.1345-11.8423-30.3184,9.3431-58.1608,16.5373-75.0952,6.19-7.6146-4.6482-12.38-12.4264-14.2249-23.1009-5.3723-31.3694,14.1081-50.0089,36.041-63.2528a63.7384,63.7384,0,0,1,8.9928-22.2132c7.1241-11.165,17.0978-19.6906,26.6512-22.7972,10.1606-3.3168,18.92-.1168,23.4044,8.5023a14.1533,14.1533,0,0,1,1.0979,11.165c-3.06,9.32-15.4862,15.4394-31.2294,23.2176-5.8861,2.8963-12.0759,5.9562-18.0789,9.32a38.5147,38.5147,0,0,0,.3037,8.6657c3.3869,22.6337,18.64,40.5491,42.8848,51.8075,1.9154-.6073,3.8307-1.1912,5.746-1.7985,36.1812-11.3519,73.6-23.0774,98.3829-10.6978,22.8439,11.4219,27.8892,27.5621,28.0994,39.0775a48.0625,48.0625,0,0,1-2.0555,14.4584,51.8916,51.8916,0,0,1,10.1606,18.1256c6.8439,21.6527-2.0087,47.0659-21.5358,61.828C199.28,406.4876,183.6532,412,167.7232,412ZM144.6224,395.58a60.0715,60.0715,0,0,0,14.1314,4.0409c16.3972,2.546,32.8878-2.0088,47.6966-13.1738,15.65-11.819,22.8205-31.9534,17.4482-48.9812a38.8812,38.8812,0,0,0-4.181-8.9928c-11.8424,22.8439-37.606,46.6455-72.2222,65.5886C146.5377,394.5985,145.58,395.089,144.6224,395.58Zm-108.66-67.5272a20.9885,20.9885,0,0,0-2.4526.14c-5.8394.654-9.8336,3.8073-12.2161,9.6234-3.69,8.9694,2.4292,22.3767,15.603,34.1957,19.1767,17.168,49.8221,28.2629,81.5419,20.8351a103.08,103.08,0,0,1-17.1446-18.92C83.1681,348.3268,54.0176,328.0523,35.9621,328.0523Zm110.8793-40.6192c33.7286,1.1679,54.844,9.2964,68.0878,19.1767a33.4956,33.4956,0,0,0,.3037-5.0219c-.21-12.0759-7.4979-21.7694-21.6293-28.8468-18.8264-9.4132-49.8455-.981-81.0047,8.6891A171.9447,171.9447,0,0,0,146.8414,287.4331ZM39.8628,221.5175C24.12,232.4723,12.4408,246.8607,16.108,268.3732c1.2613,7.3109,4.1343,12.2628,8.8059,15.1124,10.838,6.61,31.4162,2.5694,53.863-3.8774-21.5359-13.0336-35.0834-31.8132-38.54-54.8907C40.0731,223.6431,39.9563,222.592,39.8628,221.5175Zm44.0061-49.0513a12.9374,12.9374,0,0,0-3.9709.7241c-8.6657,2.8263-18.9665,13.01-24.5256,25.81,3.0832-1.5649,6.0964-3.06,9.0161-4.508C75.53,188.98,88.1667,182.767,89.6849,178.1188a2.4837,2.4837,0,0,0-.35-2.1489h0A5.61,5.61,0,0,0,83.8689,172.4662Z"/><path d="M117.06,231.538a86.4264,86.4264,0,1,1,86.4237-86.4237A86.5272,86.5272,0,0,1,117.06,231.538Zm0-161.1685a74.69,74.69,0,1,0,41.2732,12.403A74.829,74.829,0,0,0,117.06,70.37Z"/><path d="M185.8955,24.308a11.8583,11.8583,0,0,1,3.2468-8.4555,11.6437,11.6437,0,0,1,8.8759-3.457,11.8235,11.8235,0,0,1,8.946,3.457,11.6832,11.6832,0,0,1,3.3168,8.4555,11.4831,11.4831,0,0,1-3.3168,8.3854,12.0447,12.0447,0,0,1-8.946,3.3869c-3.7372,0-6.7037-1.1212-8.8759-3.3869A11.7129,11.7129,0,0,1,185.8955,24.308Z"/><path d="M329.6152,395.6855v7.53H314.6787V320.0146h15.06v32.2188a21.6139,21.6139,0,0,1,17.7763-8.5176c14.5665,0,25.8,11.2334,25.8,29.8731v.124c0,18.8867-11.11,30.7373-25.9239,30.7373A21.4808,21.4808,0,0,1,329.6152,395.6855ZM357.39,374.207v-.8642c0-11.4805-5.6777-17.1592-14.1953-17.1592-8.7646,0-14.1963,7.16-14.1963,17.6523v.9883c0,10.4922,5.1846,17.1582,14.1963,17.1582C351.4648,391.9824,357.39,385.6865,357.39,374.207Z"/><path d="M379.1162,374.4531c0-18.0224,12.0977-30.6133,29.1328-30.6133,17.6524,0,28.1455,11.7266,28.1455,30.12v5.1845H394.1768c.9873,8.3936,6.4189,13.085,14.6894,13.085,8.6416,0,12.3447-4.0742,14.1963-9.0117l13.332,4.6914c-4.0742,9.3808-12.5918,16.2939-27.7754,16.2939C390.4736,404.2031,379.1162,392.6,379.1162,374.4531Zm41.8477-5.9248c-.6172-8.5176-5.1846-12.8379-13.085-12.8379-7.4062,0-12.8379,4.69-13.9492,12.8379Z"/><path d="M447.999,387.7852v-30.49h-8.2705V344.95h8.2705V333.9639l14.9365-8.3946V344.95H474.416v12.3447H462.8125v29.0088c0,2.84,1.3574,4.0742,4.1963,4.1973h6.79v12.7148H461.9482C450.7148,402.5986,448.2461,397.4141,447.999,387.7852Z"/><path d="M479.9717,387.7852c0-13.085,9.7519-16.0479,22.8369-18.8868,10.74-2.0986,16.1719-2.5918,16.542-5.8017V362.48c0-3.4561-3.086-6.666-10.9863-6.666s-11.6045,3.95-11.9747,9.1347v.8643H481.2061c.4941-13.209,10.8632-21.9727,27.2812-21.9727,15.8008,0,25.43,6.9122,25.43,22.7129v36.6631h-14.69v-7.9c-3.7032,6.0489-10.3692,9.3819-19.01,9.3819C487.749,404.6973,479.9717,397.9082,479.9717,387.7852Zm39.3789-8.6407V374.207c-3.333,1.9746-8.7647,2.9619-13.5791,4.1963-5.9248,1.4815-10.3692,3.4571-10.3692,8.6416,0,3.95,3.086,6.666,8.3946,6.666C511.08,393.7109,518.9805,390.0078,519.3506,379.1445Z"/></svg>
